<svg xmlns="http://www.w3.org/2000/svg" width="160" height="29"><title>Group 10</title><desc>Created with Sketch.</desc><g fill="none"><g fill="#D82927"><g><path d="M.43.53h15.7c.1.56.18 1.07.23 1.54.05.47.07.94.07 1.36 0 .83-.1 1.82-.3 2.98h-9.1V11h7.18c.23 1.13.34 2.1.34 2.94 0 .85-.1 1.85-.33 2.98H7.03v11.3c-1.3.24-2.4.35-3.27.35-.92 0-2.03-.1-3.32-.34V.53z"/><path d="M74.33.57c4.7 0 8.24 1.2 10.68 3.56 2.44 2.38 3.65 5.9 3.65 10.6 0 4.8-1.24 8.28-3.72 10.5-2.48 2.22-6.14 3.34-11 3.34-1.25 0-2.44-.06-3.6-.17-1.15-.12-2.3-.25-3.4-.4V1.1c.36-.06.83-.1 1.4-.18.58-.06 1.2-.12 1.87-.17.66-.06 1.35-.1 2.06-.14.7-.03 1.4-.03 2.07-.03zm-.8 22.08c.17.02.36.04.6.04h.7c.96 0 1.87-.13 2.72-.37.86-.24 1.6-.66 2.22-1.26.62-.6 1.1-1.42 1.47-2.45.36-1.02.54-2.35.54-3.95 0-1.58-.18-2.9-.55-3.95-.37-1.06-.86-1.9-1.47-2.5-.6-.63-1.32-1.07-2.13-1.32-.82-.27-1.68-.4-2.57-.4-.5 0-.85 0-1.08.02-.22 0-.37.02-.44.02v16.1h-.02z"/><path d="M39.85 9.1c-.46-1.73-1.17-3.2-2.13-4.47-.95-1.26-2.16-2.24-3.62-2.96C32.63.95 30.9.6 28.86.6s-3.8.35-5.27 1.07c-1.5.72-2.7 1.7-3.65 2.96-.96 1.25-1.67 2.74-2.13 4.46-.46 1.72-.7 3.58-.7 5.6 0 2 .24 3.85.7 5.54.46 1.7 1.17 3.17 2.13 4.4.95 1.25 2.16 2.22 3.64 2.92 1.3.6 2.8.94 4.55 1 0-3.93 0-4.3 0-4.64 0-1.64-.8-2.47-1.63-3.2-.64-.57-1.27-1.1-1.7-3.06-.5-2.24.9-8.2 1.4-10.12.1-.37.18-.37.2 0 0 0 .1 5.76.18 7.68 0 .1.02.38.3.38.24 0 .3-.26.3-.38.3-1.9.74-7.67.74-7.67.04-.38.2-.38.2 0 0 0 .16 5.76.45 7.7 0 .16.04.34.3.34h.03c.25 0 .3-.2.3-.35.28-1.94.45-7.7.45-7.7 0-.38.15-.38.2 0 0 0 .45 5.76.74 7.67.02.1.07.38.3.38.3 0 .3-.26.3-.38.1-1.92.18-7.67.18-7.67 0-.38.1-.38.2 0 .5 1.9 1.9 7.86 1.4 10.1-.43 2-1.05 2.5-1.7 3.07-.8.73-1.6 1.56-1.6 3.2 0 .34-.02.7-.02 4.65 1.7-.08 3.17-.42 4.43-1 1.48-.7 2.68-1.67 3.63-2.92.96-1.24 1.67-2.7 2.13-4.4.46-1.7.7-3.55.7-5.56 0-2-.25-3.88-.7-5.6"/><path d="M64.48 9.1c-.46-1.7-1.17-3.2-2.12-4.45C61.4 3.4 60.2 2.4 58.73 1.7 57.27.96 55.53.6 53.5.6s-3.8.37-5.28 1.1c-1.47.7-2.7 1.7-3.64 2.95-.95 1.25-1.66 2.74-2.12 4.46-.47 1.74-.7 3.6-.7 5.6 0 2.02.23 3.87.7 5.56.46 1.7 1.17 3.17 2.12 4.4.95 1.25 2.17 2.22 3.64 2.92 1.2.55 2.58.88 4.14 1l.25-6.34c-2.13-.68-3.73-3.72-3.73-7.36 0-4.13 2.08-7.5 4.65-7.5 2.57 0 4.65 3.37 4.65 7.5 0 3.64-1.6 6.67-3.74 7.36l.25 6.33c1.54-.1 2.9-.44 4.06-.98 1.47-.7 2.67-1.67 3.63-2.92.95-1.24 1.66-2.7 2.12-4.4.45-1.7.68-3.55.68-5.56 0-2-.24-3.88-.7-5.6"/><path d="M103.64 28.23V16.98h-6.6v11.25c-1.3.22-2.4.34-3.28.34-.92 0-2.02-.1-3.32-.34V.83c.67-.1 1.28-.17 1.82-.2.55-.07 1.03-.1 1.46-.1.44 0 .95.03 1.5.1.57.04 1.17.1 1.82.2v10.24h6.6V.84c.66-.1 1.27-.18 1.8-.22.54-.06 1.03-.08 1.48-.08.44 0 .95.02 1.5.08.56.05 1.17.12 1.82.22v27.4c-1.32.22-2.4.33-3.28.33-.92 0-2.03-.1-3.32-.34z"/><path d="M122.94 28.57c-2 0-3.7-.27-5-.82-1.34-.56-2.4-1.36-3.16-2.4-.77-1.05-1.3-2.3-1.62-3.8-.32-1.48-.47-3.15-.47-5V.86c.7-.1 1.33-.17 1.85-.2.52-.04 1.02-.07 1.5-.07.4 0 .87.03 1.4.06.5.04 1.1.1 1.83.2v14.88c0 1.26.06 2.33.15 3.2.1.9.3 1.6.55 2.16.26.55.62.96 1.1 1.2.47.23 1.1.35 1.86.35.77 0 1.4-.12 1.88-.36.5-.24.86-.64 1.12-1.2.26-.55.43-1.27.52-2.15.1-.88.13-1.95.13-3.2V.86c.74-.1 1.36-.17 1.88-.2.5-.04.97-.07 1.4-.07.44 0 .93.03 1.45.06.52.04 1.14.1 1.86.2v15.67c0 1.86-.17 3.54-.48 5.02-.3 1.48-.85 2.75-1.62 3.8-.77 1.03-1.82 1.84-3.15 2.4-1.33.55-3 .82-5 .82"/><path d="M154.5 20.2c0 1.65-.3 3.02-.88 4.1-.6 1.08-1.42 1.94-2.46 2.57-1.04.63-2.3 1.08-3.73 1.32-1.45.25-3 .37-4.7.37-1.34 0-2.55-.05-3.62-.15-1.06-.1-2.2-.22-3.46-.38V1.06c.95-.15 1.98-.28 3.1-.38 1.1-.1 2.4-.15 3.9-.15 1.42 0 2.75.12 3.98.36 1.23.23 2.3.63 3.22 1.2.92.56 1.65 1.3 2.18 2.26.54.95.8 2.13.8 3.57 0 1.18-.25 2.25-.78 3.22-.52.97-1.18 1.72-1.97 2.25.57.23 1.13.52 1.66.9.54.35 1 .8 1.42 1.34.4.55.73 1.2 1 1.95.23.75.36 1.6.36 2.6zm-12.4-8.84h1.04c1.07 0 1.9-.22 2.5-.66.6-.44.9-1.2.9-2.3 0-.52-.12-.96-.33-1.3-.2-.36-.47-.63-.8-.83-.32-.2-.68-.35-1.08-.42s-.78-.1-1.15-.1h-.54c-.2 0-.4 0-.55.03v5.58h.02zm0 5.36v6.34c.17.02.4.05.65.06.26.02.6.02 1.03.02.47 0 .95-.05 1.44-.15.48-.1.92-.27 1.32-.5.4-.25.72-.58.96-1 .23-.4.35-.93.35-1.56 0-1.2-.4-2.04-1.17-2.5-.8-.47-1.8-.7-3.04-.7h-1.54v-.02z"/><path d="M156.47.63v.3h-.9v2.34h-.36V.94h-.88v-.3z"/><path d="M156.8.63h.5l.76 2.23.75-2.23h.52v2.64h-.34V1.7c0-.05 0-.14 0-.26s0-.26 0-.4l-.75 2.23h-.35l-.76-2.23v.08c0 .06 0 .16 0 .3 0 .13 0 .23 0 .3v1.55h-.33V.63z"/></g></g></g></svg>